<?xml version="1.0" standalone="no"?>
<!DOCTYPE svg PUBLIC "-//W3C//DTD SVG 20010904//EN"
 "http://www.w3.org/TR/2001/REC-SVG-20010904/DTD/svg10.dtd">
<svg version="1.0" xmlns="http://www.w3.org/2000/svg"
 width="500.000000pt" height="500.000000pt" viewBox="0 0 500.000000 500.000000"
 preserveAspectRatio="xMidYMid meet">
<metadata>
Created by potrace 1.14, written by Peter Selinger 2001-2017
</metadata>
<g transform="translate(0.000000,500.000000) scale(0.100000,-0.100000)"
fill="#000000" stroke="none">
<path d="M2753 4371 c4 -42 12 -73 26 -92 29 -39 31 -155 2 -164 -10 -3 -26
-14 -36 -25 -18 -19 -18 -19 -56 15 -22 19 -43 35 -49 35 -11 0 7 -57 21 -66
5 -3 9 -10 9 -16 0 -6 -11 -1 -25 12 -14 13 -25 30 -25 38 0 8 -15 29 -34 48
-37 37 -73 43 -115 20 -23 -13 -22 -14 44 -44 37 -18 73 -32 79 -32 11 0 45
-32 75 -73 13 -16 10 -17 -45 -15 -33 1 -70 -2 -83 -7 -22 -7 -23 -6 -12 16
l12 24 -17 -22 c-9 -13 -22 -23 -29 -23 -26 0 -46 -38 -47 -86 0 -57 10 -114
24 -131 8 -10 -7 -13 -72 -13 -46 0 -81 -2 -79 -4 2 -2 126 -7 274 -11 313 -8
336 -11 346 -45 6 -22 7 -23 8 -4 1 28 -15 40 -64 49 l-40 7 28 24 c16 13 22
24 15 24 -29 0 31 41 72 50 l45 9 -40 -3 c-22 -2 -48 -7 -57 -11 -12 -5 -18
-2 -18 7 0 19 -42 58 -61 57 -8 0 -6 -4 6 -9 11 -5 14 -9 8 -9 -7 -1 -13 -5
-13 -11 0 -5 10 -9 22 -7 17 1 24 -4 26 -22 3 -18 0 -22 -12 -18 -9 4 -16 2
-16 -3 0 -6 5 -10 10 -10 17 0 11 -36 -8 -53 -10 -10 -26 -17 -36 -17 -15 0
-15 2 -1 24 11 16 13 26 6 31 -7 3 -11 -2 -11 -14 0 -11 -9 -25 -19 -31 -22
-11 -104 -14 -115 -3 -4 4 -26 6 -50 4 l-44 -2 8 35 c5 23 4 38 -3 43 -5 3 -7
1 -4 -4 13 -22 -27 -55 -68 -56 -38 -2 -40 -1 -48 38 -14 69 -13 89 5 93 9 2
18 -5 21 -15 4 -17 5 -17 6 0 1 11 -7 21 -19 24 -23 6 -26 35 -6 52 17 14 66
4 66 -14 0 -7 9 -23 20 -36 l19 -24 1 25 c0 17 -3 21 -9 12 -7 -11 -10 -10
-15 3 -8 23 -8 27 3 21 5 -4 7 3 4 14 -5 19 0 20 74 20 78 0 103 -9 103 -38 0
-7 -16 -20 -35 -28 -35 -14 -50 -29 -17 -17 15 6 16 5 2 -12 -15 -18 -14 -18
12 -1 39 26 62 14 54 -26 -8 -38 -33 -68 -57 -68 -10 0 -20 -4 -23 -9 -10 -16
38 1 62 22 l22 20 1 -34 1 -34 7 30 c4 17 3 33 -2 36 -13 9 0 29 18 29 9 0 12
6 8 16 -3 9 0 20 8 25 10 6 11 9 1 9 -7 0 -17 -10 -22 -22 -7 -18 -9 -19 -9
-6 -1 10 -10 23 -20 30 -15 9 -17 15 -8 29 9 14 7 22 -6 37 -20 22 -13 52 13
52 13 0 16 -6 13 -24 -3 -13 2 -36 10 -51 l14 -28 5 31 c4 25 2 29 -9 21 -10
-9 -13 -6 -13 15 0 16 6 26 15 26 16 0 48 -54 38 -64 -4 -3 -1 -6 5 -6 6 0 14
5 17 10 10 16 33 11 38 -7 2 -10 4 -1 4 20 1 30 -4 40 -20 46 -20 8 -20 8 4
24 30 22 35 21 66 -3 32 -25 52 -25 60 -2 3 9 13 25 21 34 12 14 12 20 2 33
-7 8 -18 15 -25 15 -7 0 -15 9 -18 20 -4 14 -14 20 -35 20 -36 0 -58 -22 -46
-47 6 -15 8 -13 12 10 3 23 8 27 34 27 26 0 30 -3 26 -23 -4 -19 0 -22 21 -22
17 0 26 -5 26 -15 0 -10 -10 -15 -33 -15 -33 0 -33 0 -13 -16 12 -10 21 -20
21 -23 0 -14 -29 -4 -56 19 -16 14 -32 25 -36 25 -15 0 -30 41 -19 54 6 7 8
16 4 19 -26 26 -38 -29 -12 -56 24 -26 24 -27 -16 -59 -30 -26 -35 -27 -60
-14 -24 13 -25 15 -7 20 10 4 30 19 43 34 l24 27 -25 -21 c-32 -27 -64 -44
-85 -44 -27 0 0 35 50 64 44 26 59 41 30 30 -29 -12 -17 40 17 69 18 16 26 25
18 21 -8 -4 -23 -14 -32 -22 -10 -8 -18 -12 -18 -8 0 20 25 48 58 65 20 11 32
20 26 21 -6 0 -28 -11 -48 -25 l-36 -24 6 52 c5 49 3 55 -32 97 l-37 45 6 -64z
m57 -52 c0 -15 -7 -29 -15 -32 -15 -7 -35 46 -35 93 l1 25 24 -30 c14 -16 25
-42 25 -56z m-227 -171 c43 -43 21 -48 -54 -12 -61 29 -63 44 -6 44 19 0 39
-11 60 -32z m105 -50 c25 -28 38 -73 22 -83 -15 -9 -42 15 -35 32 3 8 -2 24
-10 36 -29 41 -12 52 23 15z m192 -93 c0 -17 -38 -26 -47 -12 -3 6 -1 13 5 15
7 2 10 7 7 12 -3 4 4 6 15 3 11 -3 20 -11 20 -18z"/>
<path d="M2680 4046 c0 -2 8 -10 18 -17 15 -13 16 -12 3 4 -13 16 -21 21 -21
13z"/>
<path d="M2925 4299 c-17 -8 -15 -8 8 -4 38 8 34 -1 -13 -25 -22 -11 -40 -23
-40 -26 0 -10 83 41 88 54 4 14 -14 15 -43 1z"/>
<path d="M2660 4256 c0 -8 4 -18 10 -21 6 -3 7 1 4 9 -17 43 66 -16 92 -65 8
-16 12 -29 9 -29 -15 0 -52 24 -74 48 -24 27 -24 27 -9 2 17 -29 98 -78 98
-60 0 25 -42 86 -74 108 -37 25 -56 28 -56 8z"/>
<path d="M2570 4053 c55 -8 71 -14 65 -23 -3 -6 -1 -10 4 -10 6 0 11 4 11 10
0 15 -36 30 -72 29 -26 -1 -28 -3 -8 -6z"/>
<path d="M2900 3993 c0 -6 5 -13 12 -15 16 -6 1 -27 -26 -38 -14 -6 -16 -9 -5
-9 9 -1 24 8 34 19 18 19 18 22 2 37 -9 10 -17 12 -17 6z"/>
<path d="M2623 3894 c33 -18 35 -41 5 -54 -18 -8 -19 -9 -4 -7 10 1 24 10 30
20 9 15 7 22 -13 38 -13 10 -28 19 -35 19 -6 -1 1 -8 17 -16z"/>
<path d="M2573 3885 c-3 -9 -3 -18 -1 -21 3 -3 8 4 11 16 6 23 -1 27 -10 5z"/>
<path d="M2481 3859 c0 -13 4 -33 9 -44 7 -14 8 -8 3 20 -7 46 -13 59 -12 24z"/>
<path d="M2137 3863 c-4 -3 -7 -26 -7 -49 l0 -43 -57 -4 -58 -3 58 -2 c48 -2
57 -5 57 -20 0 -10 7 -27 16 -38 15 -18 15 -18 5 3 -6 12 -11 52 -11 88 0 96
21 80 37 -29 7 -48 15 -91 18 -96 7 -12 -7 -13 -21 -2 -5 4 -1 -1 10 -11 19
-17 20 -17 33 14 7 17 13 44 13 60 0 21 5 29 18 30 13 0 12 2 -5 9 -13 5 -23
14 -23 19 0 12 -59 81 -69 81 -4 0 -11 -3 -14 -7z m79 -110 c3 -24 2 -54 -3
-66 -9 -19 -12 -12 -22 44 -6 36 -11 74 -11 85 1 19 1 19 15 0 8 -10 17 -39
21 -63z"/>
<path d="M3018 3861 c17 -11 -36 -50 -82 -61 -29 -7 -29 -8 -5 -9 14 -1 44 12
67 28 51 38 59 51 30 51 -16 0 -19 -3 -10 -9z"/>
<path d="M2288 3763 c7 -3 16 -2 19 1 4 3 -2 6 -13 5 -11 0 -14 -3 -6 -6z"/>
<path d="M1983 3738 c-25 -28 -43 -62 -42 -80 0 -7 7 4 16 25 18 44 28 47 41
10 8 -25 9 -22 8 19 0 27 -1 48 -2 48 0 0 -10 -10 -21 -22z"/>
<path d="M1690 3670 c0 -5 5 -10 12 -10 6 0 33 -22 58 -50 39 -42 52 -50 81
-50 36 0 64 -21 88 -67 15 -30 14 -93 -1 -94 -7 0 -3 -5 9 -11 23 -11 48 -59
41 -79 -2 -6 -28 11 -58 39 -51 48 -53 51 -30 53 23 1 23 2 -5 8 -16 4 -32 6
-34 4 -3 -2 11 -19 29 -38 30 -31 32 -35 13 -35 -11 0 -26 7 -33 15 -7 9 -27
14 -49 14 l-36 -2 40 -6 c33 -5 40 -10 39 -27 0 -18 3 -20 16 -11 22 13 59 3
94 -24 22 -17 27 -29 24 -53 -3 -31 -3 -31 44 -31 26 0 53 -6 60 -12 10 -10
-4 -13 -67 -14 -44 -1 -70 -4 -57 -6 36 -7 25 -22 -20 -26 -24 -2 7 -4 68 -5
110 -2 111 -2 107 -25 -3 -15 2 -28 14 -37 15 -12 16 -12 6 0 -15 16 -17 34
-4 26 5 -3 8 2 7 11 -2 27 121 80 143 62 8 -6 8 -5 1 3 -16 20 -12 38 13 48
19 9 19 10 2 7 -11 -1 -24 -12 -30 -24 -12 -28 -83 -40 -122 -21 -34 16 -42
57 -18 96 l16 27 -20 -24 c-23 -26 -28 -70 -9 -89 19 -19 0 -14 -46 13 -71 42
-73 46 -79 191 -4 93 -2 135 6 145 7 7 2 5 -11 -5 -27 -23 -30 -21 -47 41 -7
26 -14 40 -14 31 -1 -10 6 -38 14 -63 24 -70 8 -85 -35 -31 -23 29 -40 41 -52
38 -34 -8 -66 8 -104 54 l-38 47 49 -6 c32 -4 43 -3 30 3 -28 12 -105 12 -105
0z m298 -265 l1 -70 -19 35 c-22 41 -25 83 -8 131 l12 34 7 -30 c4 -16 7 -61
7 -100z m37 -155 c18 -19 17 -20 -3 -20 -15 0 -22 6 -22 20 0 11 2 20 3 20 2
0 12 -9 22 -20z m109 -61 c-4 -8 1 -9 17 -4 21 7 22 6 7 -9 -12 -12 -35 -16
-87 -16 -41 0 -71 4 -71 10 0 6 24 10 53 10 28 0 59 5 67 10 20 13 23 12 14
-1z"/>
<path d="M2407 3655 c-49 -34 -48 -42 1 -11 21 13 47 26 58 29 18 4 18 5 -1 6
-11 0 -37 -10 -58 -24z"/>
<path d="M2952 3423 c-2 -243 -3 -263 -19 -263 -10 0 -26 14 -35 30 -10 18
-25 30 -38 30 -17 0 -19 3 -10 19 15 29 12 87 -5 101 -13 11 -20 11 -40 0 -31
-16 -47 -4 -21 16 11 7 17 16 14 19 -2 3 -13 -4 -23 -15 -26 -29 -6 -49 29
-31 32 18 46 7 46 -35 0 -55 -15 -74 -58 -74 -24 0 -32 -3 -24 -9 7 -4 35 -6
62 -3 42 4 50 2 60 -17 7 -15 8 -26 2 -34 -8 -9 10 -11 76 -7 62 3 74 5 40 8
l-48 3 -3 262 -2 262 -3 -262z"/>
<path d="M2011 3644 c0 -11 3 -14 6 -6 3 7 2 16 -1 19 -3 4 -6 -2 -5 -13z"/>
<path d="M1840 3623 c13 -18 26 -30 29 -28 3 3 -8 18 -23 33 l-29 27 23 -32z"/>
<path d="M2425 3600 c-9 -16 -13 -30 -11 -30 3 0 12 14 21 30 9 17 13 30 11
30 -3 0 -12 -13 -21 -30z"/>
<path d="M2017 3613 c-4 -3 -7 -13 -7 -22 1 -13 3 -13 11 2 11 19 8 33 -4 20z"/>
<path d="M2578 3603 c7 -3 16 -2 19 1 4 3 -2 6 -13 5 -11 0 -14 -3 -6 -6z"/>
<path d="M2640 3601 c14 -4 26 -13 26 -21 4 -39 7 -43 13 -20 10 38 46 39 59
1 6 -17 13 -31 17 -31 3 0 -1 15 -8 33 -11 26 -19 32 -44 32 -17 0 -35 3 -39
8 -4 4 -17 7 -28 6 -18 -1 -17 -2 4 -8z"/>
<path d="M2052 3591 c-9 -5 2 -18 41 -45 82 -57 156 -60 127 -6 -25 47 -127
78 -168 51z m118 -16 c26 -13 50 -42 50 -59 0 -24 -112 18 -145 54 -18 20 -17
20 24 20 23 0 55 -7 71 -15z"/>
<path d="M2220 3597 c0 -34 113 -182 131 -172 5 4 6 -2 2 -12 -3 -10 -3 -15 1
-11 11 9 66 -12 66 -25 0 -8 3 -9 8 -2 4 6 20 8 37 4 21 -5 24 -7 10 -9 -11
-1 -24 -2 -28 -1 -5 1 -6 -3 -2 -9 3 -6 11 -8 16 -4 5 3 17 0 26 -8 20 -16
124 -17 138 -1 22 26 47 19 59 -16 6 -19 17 -36 23 -39 9 -3 9 5 -2 31 -19 46
-2 72 43 65 36 -5 34 7 -3 14 -14 3 -30 -1 -37 -9 -9 -11 -13 -12 -20 -1 -6 8
-7 4 -2 -12 6 -24 6 -24 -13 -7 -25 22 -39 22 -55 -1 -14 -21 -95 -36 -116
-23 -10 6 -3 14 22 29 20 12 36 27 36 34 0 6 -7 3 -16 -8 -13 -16 -15 -16 -10
-1 5 16 4 16 -19 1 -40 -26 -126 -9 -146 29 -8 13 -14 16 -18 8 -10 -15 -51
29 -95 103 -20 33 -36 57 -36 53z m430 -221 c0 -2 -7 -7 -16 -10 -8 -3 -12 -2
-9 4 6 10 25 14 25 6z"/>
<path d="M2325 3570 c-7 -23 10 -60 29 -60 7 0 23 12 37 28 l24 27 -26 -22
c-14 -13 -30 -23 -36 -23 -15 0 -25 33 -17 54 3 9 4 16 1 16 -3 0 -8 -9 -12
-20z"/>
<path d="M2529 3553 c6 -39 27 -55 37 -29 3 8 1 28 -5 43 -10 26 -10 25 -5 -9
4 -25 2 -38 -5 -38 -6 0 -11 13 -11 29 0 17 -4 32 -8 35 -5 3 -6 -11 -3 -31z"/>
<path d="M2463 3563 c-10 -10 -14 -15 -8 -11 6 4 22 12 36 17 15 6 18 10 8 10
-9 1 -25 -7 -36 -16z"/>
<path d="M2642 3538 c-7 -7 -12 -16 -12 -20 0 -12 28 -10 36 4 5 7 3 8 -6 3
-10 -6 -12 -4 -7 8 8 20 5 21 -11 5z"/>
<path d="M2436 3511 c5 -19 3 -23 -10 -18 -32 12 -15 -3 22 -20 57 -26 59 -26
31 -1 -14 13 -32 32 -38 43 -11 19 -11 18 -5 -4z"/>
<path d="M2738 3509 c-12 -6 -18 -22 -18 -43 0 -26 -5 -35 -22 -41 -21 -6 -21
-8 -4 -12 23 -6 36 12 36 55 0 17 5 32 10 32 14 0 12 -63 -2 -80 -11 -12 -10
-12 4 -2 9 8 18 31 20 57 3 48 2 50 -24 34z"/>
<path d="M2559 3493 c-13 -15 -12 -15 8 -5 17 10 25 9 37 -4 9 -8 16 -11 16
-5 0 9 -31 31 -43 31 -3 0 -11 -7 -18 -17z"/>
<path d="M2130 3482 c0 -14 97 -102 112 -102 24 0 38 -23 38 -62 0 -44 17 -51
26 -10 12 57 16 62 47 71 31 9 31 9 5 10 -15 1 -30 -4 -33 -9 -4 -6 -11 -7
-17 -4 -6 4 -8 3 -5 -3 3 -5 2 -23 -3 -39 l-8 -29 -2 28 c-2 15 -3 32 -4 38 0
6 -19 17 -40 24 -22 8 -56 30 -75 50 l-36 37 50 -5 c34 -4 42 -3 25 3 -33 11
-80 12 -80 2z"/>
<path d="M2373 3483 c-7 -2 -13 -9 -13 -14 0 -4 6 -6 13 -3 16 6 33 -12 40
-41 4 -19 5 -19 6 1 0 12 -6 27 -14 34 -8 7 -12 16 -9 21 6 10 -3 11 -23 2z"/>
<path d="M2265 3453 c17 -8 41 -25 55 -37 l25 -21 -20 24 c-19 22 -66 51 -82
51 -4 -1 6 -8 22 -17z"/>
<path d="M2549 3448 c17 -22 31 -23 57 -3 18 14 17 14 -8 4 -22 -10 -31 -9
-45 2 -16 13 -17 12 -4 -3z"/>
<path d="M2192 3368 c-7 -7 -12 -17 -12 -24 0 -7 -3 -14 -7 -17 -5 -2 -3 -2 4
-1 6 2 14 -4 17 -12 9 -24 7 -27 -11 -19 -15 5 -16 4 -5 -6 20 -21 35 3 21 34
-9 21 -9 30 1 42 15 18 9 20 -8 3z"/>
<path d="M1749 3343 c-13 -16 -12 -17 4 -4 9 7 17 15 17 17 0 8 -8 3 -21 -13z"/>
<path d="M2391 3338 c-1 -31 13 -37 27 -11 8 14 12 13 26 -10 27 -41 18 -78
-23 -92 -44 -15 -53 -35 -14 -34 28 1 28 1 3 8 l-25 7 25 7 c35 10 42 9 34 -5
-4 -7 -3 -8 4 -4 17 10 16 -75 0 -96 -7 -9 -22 -19 -33 -22 -12 -3 -8 -4 8 -2
33 4 33 0 5 -33 l-23 -26 29 25 c23 20 28 21 23 7 -4 -10 -3 -16 2 -12 5 3 11
0 13 -7 3 -7 7 -5 11 6 4 11 3 15 -4 10 -7 -4 -9 1 -7 12 2 11 11 18 21 18 13
-1 16 3 12 17 -5 14 0 20 20 25 26 6 51 -5 28 -13 -24 -9 -13 -23 12 -17 22 5
25 3 25 -21 0 -21 -4 -26 -16 -21 -14 5 -15 4 -5 -8 17 -20 4 -56 -19 -56 -13
0 -20 9 -23 28 l-4 27 -2 -29 c-1 -24 -4 -28 -25 -24 -18 4 -22 1 -19 -13 3
-9 0 -28 -6 -40 -10 -21 -10 -21 1 -6 7 10 18 26 24 34 6 9 26 16 44 17 28 1
44 13 56 44 1 1 8 0 16 -3 10 -4 14 -15 11 -28 -2 -12 3 -8 11 11 11 23 24 34
45 38 17 4 29 9 27 13 -3 4 16 8 42 9 34 1 51 7 63 23 14 19 19 20 40 9 13 -7
34 -22 47 -33 12 -12 32 -22 45 -24 21 -3 21 -2 -3 12 -25 14 -25 14 15 15 22
0 51 -4 65 -7 23 -7 21 -8 -15 -14 l-40 -6 43 -2 c23 0 42 4 42 9 0 17 -51 31
-100 29 -32 -1 -56 5 -84 22 -39 23 -39 23 -15 30 22 7 23 7 2 8 -14 1 -28 -9
-40 -29 -22 -39 -55 -40 -71 -2 l-11 27 5 -32 c6 -35 -11 -47 -23 -16 -5 14
-8 13 -14 -5 -12 -31 -32 -27 -86 14 -55 41 -68 63 -60 96 5 20 13 24 47 24
22 0 35 -3 29 -6 -7 -5 -5 -10 7 -14 9 -3 19 -4 22 -1 11 10 -18 29 -62 40
-36 9 -43 9 -39 -2 3 -7 0 -13 -6 -13 -6 0 -11 7 -11 16 0 24 19 54 34 54 8 0
20 7 27 17 13 15 12 15 -11 2 -14 -8 -33 -20 -42 -28 -16 -13 -18 -12 -18 9 0
32 -13 16 -34 -43 -15 -40 -20 -46 -32 -36 -10 8 -12 15 -4 23 17 17 11 61
-11 90 -24 30 -39 33 -40 9 -1 -12 -4 -10 -9 7 l-8 25 -1 -27z m143 -108 c4
-28 1 -50 -9 -70 -19 -37 -33 -38 -41 -5 -6 24 24 115 37 115 4 0 9 -18 13
-40z m11 -80 c3 -5 1 -10 -4 -10 -6 0 -11 5 -11 10 0 6 2 10 4 10 3 0 8 -4 11
-10z m-66 -56 c-16 -20 -21 -12 -13 21 6 23 8 25 16 11 6 -11 6 -22 -3 -32z
m156 -24 c22 -24 8 -46 -23 -36 -14 5 -18 13 -14 31 5 30 13 31 37 5z"/>
<path d="M1714 3308 c-3 -5 25 -7 63 -7 73 1 68 6 -10 11 -27 2 -51 0 -53 -4z"/>
<path d="M2687 3243 c-3 -5 6 -9 21 -8 17 0 28 -6 30 -18 5 -23 -26 -33 -52
-17 -19 12 -20 12 -7 -3 28 -34 87 -5 64 31 -11 19 -48 28 -56 15z"/>
<path d="M2331 3220 c0 -15 -4 -30 -8 -36 -5 -5 -2 -4 5 2 8 6 12 22 9 35 -4
24 -4 24 -6 -1z"/>
<path d="M2594 3175 c-6 -35 7 -65 29 -65 6 0 3 6 -8 13 -14 11 -16 21 -11 50
4 21 5 37 2 37 -3 0 -8 -16 -12 -35z"/>
<path d="M1801 3141 c-8 -5 5 -7 35 -4 27 3 51 7 53 9 9 8 -75 3 -88 -5z"/>
<path d="M3073 3143 c9 -2 25 -2 35 0 9 3 1 5 -18 5 -19 0 -27 -2 -17 -5z"/>
<path d="M3146 3115 c12 -18 18 -56 22 -120 2 -52 8 -95 11 -95 13 0 -8 191
-23 216 -9 13 -19 24 -21 24 -3 0 2 -11 11 -25z"/>
<path d="M1774 3106 c-3 -8 -4 -25 -2 -38 3 -17 5 -13 9 15 5 38 2 47 -7 23z"/>
<path d="M2290 3095 c0 -19 -6 -29 -21 -32 -16 -4 -17 -8 -7 -14 9 -6 5 -9
-13 -9 -14 0 -34 9 -44 20 -10 11 -25 20 -34 19 -12 0 -10 -3 4 -9 12 -4 27
-15 34 -24 17 -20 55 -21 71 -1 11 14 14 13 24 -7 13 -26 55 -35 83 -19 13 7
7 8 -23 4 -25 -3 -44 -1 -48 6 -5 7 2 11 17 11 13 0 32 10 43 23 19 22 19 22
-2 5 -11 -10 -30 -18 -42 -18 -18 0 -22 6 -22 29 0 17 -4 33 -10 36 -6 4 -10
-5 -10 -20z"/>
<path d="M2650 3110 c-13 -9 -13 -10 0 -10 8 0 22 5 30 10 13 9 13 10 0 10 -8
0 -22 -5 -30 -10z"/>
<path d="M2210 3086 c0 -2 8 -10 18 -17 15 -13 16 -12 3 4 -13 16 -21 21 -21
13z"/>
<path d="M2717 3037 c-4 -10 -15 -13 -33 -9 -19 3 -25 1 -20 -7 4 -6 16 -11
27 -11 12 0 19 -7 19 -18 0 -28 -11 -34 -32 -15 -10 9 -21 13 -26 9 -4 -4 1
-13 11 -20 22 -17 22 -30 0 -21 -14 5 -15 4 -6 -6 17 -17 65 27 61 56 -1 11 1
26 6 33 4 7 6 15 3 18 -2 3 -7 -2 -10 -9z"/>
<path d="M1764 2860 c0 -102 2 -143 3 -92 2 50 2 134 0 185 -1 50 -3 9 -3 -93z"/>
<path d="M2930 3026 c0 -2 8 -10 18 -17 15 -13 16 -12 3 4 -13 16 -21 21 -21
13z"/>
<path d="M2409 2973 c-5 -15 -9 -48 -7 -73 l3 -46 25 30 c21 27 22 29 2 12
l-22 -19 0 36 c0 20 4 47 10 61 5 14 7 26 5 26 -3 0 -10 -12 -16 -27z"/>
<path d="M2968 2978 c8 -9 11 -26 7 -37 -8 -27 13 -103 28 -98 7 2 13 14 14
28 l2 24 -7 -25 c-9 -29 -18 -19 -27 33 -8 40 12 55 22 17 3 -11 9 -18 13 -15
4 2 24 -5 46 -15 21 -11 45 -20 54 -20 8 0 23 -7 33 -15 17 -12 18 -28 15
-177 -4 -195 -9 -209 -90 -233 -110 -32 -228 -40 -638 -40 -223 0 -376 -3
-340 -6 36 -4 184 -7 330 -8 407 -2 643 22 704 70 16 12 31 38 37 64 7 26 18
46 28 48 14 4 14 5 -1 6 -16 1 -18 14 -18 131 l0 130 43 0 c23 0 48 4 56 9 19
12 -91 45 -120 36 -42 -14 -91 5 -148 58 -30 29 -50 44 -43 35z m290 -123 c7
-7 -48 -6 -77 2 -23 6 -23 7 -5 13 18 7 70 -3 82 -15z"/>
<path d="M1766 2628 l6 -46 -43 -11 -44 -11 43 5 c37 5 42 3 42 -15 0 -31 26
-75 54 -94 30 -19 138 -46 181 -45 17 0 -5 7 -49 15 -141 26 -175 56 -177 156
0 29 -5 62 -10 73 -6 14 -7 5 -3 -27z"/>
<path d="M3290 2546 c41 -12 85 -28 97 -34 31 -17 43 -14 13 3 -29 17 -150 55
-171 54 -8 0 20 -10 61 -23z"/>
<path d="M1615 2541 c-53 -25 -43 -26 20 -1 28 10 43 19 35 19 -8 0 -33 -8
-55 -18z"/>
<path d="M1546 2501 c-24 -26 -17 -70 14 -88 l25 -15 -22 20 c-27 24 -30 58
-6 84 9 10 14 18 11 18 -3 0 -13 -9 -22 -19z"/>
<path d="M3445 2480 c10 -11 20 -20 23 -20 3 0 -3 9 -13 20 -10 11 -20 20 -23
20 -3 0 3 -9 13 -20z"/>
<path d="M3450 2426 c-6 -8 -32 -23 -56 -32 -24 -9 -42 -19 -40 -21 7 -8 90
32 105 50 7 10 11 17 8 17 -2 0 -10 -7 -17 -14z"/>
<path d="M1590 2396 c0 -15 297 -77 360 -75 14 0 -36 11 -110 24 -123 21 -197
37 -236 52 -8 3 -14 3 -14 -1z"/>
<path d="M3309 2365 c-10 -10 -210 -37 -334 -45 l-130 -9 135 4 c132 4 294 25
341 44 15 6 18 10 8 10 -9 1 -18 -1 -20 -4z"/>
<path d="M2060 2310 c47 -5 130 -13 185 -17 l100 -8 32 -65 c23 -46 34 -82 35
-122 2 -32 7 -58 11 -58 18 0 -6 118 -37 183 l-32 67 120 2 c93 1 70 3 -94 8
-118 4 -258 10 -310 13 l-95 6 85 -9z"/>
<path d="M2600 2301 c0 -5 9 -7 21 -4 17 5 14 -3 -19 -47 -40 -53 -69 -127
-59 -152 3 -7 6 -1 6 13 1 32 54 140 81 164 16 14 44 20 118 25 l97 7 -122 1
c-68 1 -123 -2 -123 -7z"/>
<path d="M2535 2020 c9 -121 82 -229 193 -283 60 -30 54 -55 -18 -75 -26 -8
-29 -10 -12 -11 25 -1 63 16 74 33 15 23 7 35 -45 64 -29 16 -67 42 -85 57
-42 35 -89 135 -101 215 l-10 65 4 -65z"/>
<path d="M2407 1979 c-8 -69 -42 -125 -107 -176 -125 -99 -126 -100 -112 -115
11 -11 12 -10 7 4 -5 12 9 27 52 59 121 88 159 139 170 230 3 27 4 49 1 49 -3
0 -8 -23 -11 -51z"/>
<path d="M2255 1659 c17 -5 118 -12 225 -14 l195 -3 -185 8 c-102 4 -203 10
-225 14 -37 5 -38 5 -10 -5z"/>
<path d="M1858 1247 c-50 -28 -60 -30 -79 -19 -25 16 -37 8 -23 -16 17 -27 58
-26 104 3 62 39 91 38 112 -5 18 -35 23 -114 12 -157 -5 -17 -18 -24 -63 -33
-198 -39 -341 -123 -395 -232 -28 -57 -32 -84 -15 -121 27 -60 134 -76 224
-33 92 43 213 199 254 327 12 37 30 49 79 49 36 0 21 24 -19 30 l-34 5 3 54
c5 70 -14 137 -46 161 -33 27 -47 25 -114 -13z m102 -273 c0 -9 -16 -51 -36
-93 -51 -105 -157 -212 -232 -235 -61 -18 -107 -12 -139 17 -62 56 15 184 152
255 115 59 255 90 255 56z"/>
<path d="M3068 1047 c-23 -35 -25 -43 -12 -45 16 -4 94 64 94 80 0 4 -12 8
-27 8 -22 0 -34 -10 -55 -43z"/>
<path d="M3228 866 c-32 -29 -58 -58 -58 -65 0 -16 11 -13 40 8 24 19 24 19
62 -11 44 -34 48 -54 14 -70 -20 -9 -33 -7 -67 10 -45 23 -55 22 -46 -2 30
-78 220 -59 337 34 63 50 47 73 -16 25 -37 -28 -131 -75 -152 -75 -8 0 -10 8
-6 25 5 21 -1 32 -30 60 -39 37 -44 56 -21 75 16 13 21 40 8 40 -5 -1 -34 -25
-65 -54z"/>
<path d="M2373 893 c-13 -9 -23 -19 -23 -24 0 -14 24 -11 46 5 28 21 6 39 -23
19z"/>
<path d="M2018 813 c-41 -43 -45 -77 -14 -107 30 -31 59 -33 86 -6 16 16 28
19 58 14 48 -8 153 18 195 48 l30 22 -6 -36 c-3 -20 -21 -58 -41 -85 -73 -101
-103 -196 -71 -223 39 -32 74 24 115 187 12 47 29 85 51 112 18 23 35 41 38
41 3 0 26 -7 50 -15 24 -9 52 -13 62 -10 10 3 28 8 39 11 17 4 20 1 20 -25 0
-20 8 -35 22 -45 30 -21 50 -20 80 4 19 14 34 18 60 14 69 -12 228 49 245 92
10 26 -5 27 -39 1 -60 -45 -99 -59 -167 -61 l-66 -1 -5 35 c-4 25 -11 36 -25
39 -11 2 -23 8 -26 13 -3 5 -35 -4 -73 -22 -70 -33 -105 -34 -152 -3 -20 12
-25 11 -54 -14 l-33 -28 6 25 c3 14 2 31 -2 39 -7 11 -15 8 -37 -14 -45 -42
-111 -68 -179 -69 l-60 -1 -5 35 c-4 27 -10 36 -27 38 -13 2 -23 8 -23 13 0
18 -27 9 -52 -18z m42 -97 c-13 -13 -44 4 -48 26 -1 8 7 27 20 43 l23 29 7
-44 c5 -27 4 -48 -2 -54z m642 69 c-2 -14 1 -32 8 -40 15 -18 5 -35 -20 -35
-22 0 -44 35 -34 53 12 20 37 47 44 47 4 0 5 -11 2 -25z m-381 -228 c-12 -35
-28 -73 -36 -83 -14 -18 -14 -18 -15 5 0 25 59 156 67 147 3 -2 -5 -34 -16
-69z"/>
</g>
</svg>
